<svg width="150" height="86" viewBox="0 0 150 86" fill="none" xmlns="http://www.w3.org/2000/svg">

<g id="about /1440">
<g id=" ">

<g id="Frame 2087329074">

<g id="Frame 2087329074_2">
<g id="Frame 2087328446" opacity="0.2">
<g id="Frame 1321317214">
<g id="card">
<g id="icon">
<g id="Frame 398">
<g id="Company logo" clip-path="url(#clip0_0_1)">
<g id="Vector">
<path d="M30.0244 48.4702H22.9436V51.4142H30.0244V48.4702Z" fill="#404041"/>
<path d="M40.6424 48.4702H33.566V51.4142H40.6424V48.4702Z" fill="#404041"/>
<path d="M40.6442 42.5826H22.9395V45.5265H40.6442V42.5826Z" fill="#404041"/>
<path d="M33.5658 36.6953H22.9436V39.6391H33.5658V36.6953Z" fill="#404041"/>
<path d="M40.646 36.6953H37.1057V39.6391H40.646V36.6953Z" fill="#404041"/>
<path d="M92.0429 36.6785C86.3569 36.6785 83.4203 40.022 83.4203 44.1463C83.4203 48.2709 86.2845 51.6147 92.0429 51.6147C97.8012 51.6147 100.665 48.2709 100.665 44.1463C100.666 40.022 97.7286 36.6785 92.0429 36.6785ZM96.3446 44.1597C96.3405 46.8119 95.2658 48.9601 92.0429 48.9601C88.82 48.9601 87.745 46.8121 87.7416 44.1597V44.1465C87.745 41.4945 88.8202 39.3465 92.0431 39.3465C95.2658 39.3465 96.3405 41.4945 96.3446 44.1465V44.1532C96.3446 44.1554 96.3446 44.1575 96.3446 44.1597Z" fill="#404041"/>
<path d="M66.5836 51.4139V30.7664C66.5836 30.7664 69.8588 30.3796 70.1127 30.3512C70.4004 30.3188 70.7823 30.4891 70.7823 30.8258V38.4799C71.4619 37.9427 72.2104 37.5096 73.0261 37.1796C73.8424 36.8499 74.7997 36.6848 75.8994 36.6848C76.8516 36.6848 77.6951 36.8191 78.4317 37.0878C79.1688 37.356 79.7837 37.7334 80.2766 38.2183C80.7695 38.7039 81.1436 39.2834 81.3987 39.9571C81.6535 40.6309 81.7811 41.373 81.7811 42.1835V51.4138H77.5821V42.1835C77.5821 41.2978 77.3356 40.6122 76.8426 40.1265C76.3495 39.6414 75.61 39.3987 74.6237 39.3987C73.8985 39.3987 73.2188 39.5354 72.5845 39.8089C71.9495 40.0823 71.3489 40.4541 70.7823 40.9256V51.4139H66.5836Z" fill="#404041"/>
<path d="M122.64 51.6128C119.75 51.6128 117.939 50.2145 117.939 47.606V39.875H114.683C114.683 39.875 115.375 37.8845 115.43 37.7277C115.485 37.5712 115.628 37.4029 115.915 37.3697C116.203 37.3364 117.935 37.1355 117.935 37.1355L118.736 32.9023C118.736 32.9023 121.087 32.6267 121.46 32.5804C121.812 32.5366 122.131 32.7474 122.131 33.0663V37.1355H126.249V39.875H122.131V47.5018C122.131 48.5431 122.893 48.9411 123.624 48.9411C124.071 48.9411 124.682 48.7439 125.139 48.5678C125.421 48.4593 125.858 48.5398 125.971 48.8672C126.071 49.1573 126.602 50.697 126.602 50.697C126.144 50.9429 124.696 51.6128 122.64 51.6128Z" fill="#404041"/>
<path d="M112.377 39.9211C111.558 39.7001 110.02 39.3464 108.557 39.3464C107.066 39.3464 105.893 39.7746 105.893 40.8053C105.893 42.0927 108.421 42.4675 110.152 42.9923C111.308 43.3431 114.411 44.0271 114.411 46.8017C114.411 50.1721 111.045 51.6131 107.454 51.6131C103.863 51.6131 101.741 50.5025 101.741 50.5025C101.741 50.5025 102.298 48.8663 102.411 48.5434C102.513 48.2527 102.92 48.1508 103.178 48.2334C104.103 48.5296 105.771 48.9414 107.658 48.9414C109.568 48.9414 110.492 48.4565 110.492 47.4228C110.492 46.047 107.913 45.6265 106.207 45.1791C105.032 44.8712 101.922 44.1531 101.922 41.1016C101.922 38.0956 105.096 36.6852 108.489 36.6852C111.361 36.6852 112.769 37.1846 113.822 37.6303C113.822 37.6303 113.235 39.3295 113.148 39.5826C113.045 39.8834 112.749 40.0214 112.377 39.9211Z" fill="#404041"/>
<path d="M64.9452 37.1829C64.9452 36.8577 64.6111 36.6716 64.2923 36.7019C62.8832 36.8361 61.878 37.3875 61.2276 37.9008C59.9505 37.0688 58.1777 36.6716 56.1882 36.6716C52.1992 36.6716 49.0826 38.2725 49.0826 41.7632C49.0826 43.7671 50.1084 45.1479 51.7375 45.9607C50.5276 46.4369 49.7218 47.4474 49.7218 48.4408C49.7218 50.1026 51.3006 50.6229 51.3006 50.6229C51.3006 50.6229 48.5401 51.7371 48.5401 53.966C48.5401 56.8194 51.698 57.973 55.5568 57.973C61.119 57.973 64.9459 56.0628 64.9459 52.5551C64.9459 50.3964 62.9592 49.2046 58.6298 49.0629C56.0606 48.9786 54.3965 48.9017 53.9842 48.7883C53.4394 48.6378 53.1716 48.2751 53.1716 47.8747C53.1716 47.4327 53.6083 47.0119 54.2966 46.7229C54.897 46.8113 55.5306 46.855 56.1886 46.855C60.181 46.855 63.2944 45.2587 63.2944 41.7634C63.2944 40.9158 63.1104 40.18 62.7758 39.5513C63.3623 39.2911 64.084 39.108 64.9456 39.108C64.9456 39.108 64.9452 37.4795 64.9452 37.1829ZM53.9522 51.4323C53.9522 51.4323 56.047 51.4982 58.1402 51.5788C60.4919 51.6693 61.2247 52.0907 61.2247 53.1032C61.2247 54.3402 59.181 55.5435 56.3251 55.5435C53.6141 55.5435 52.2599 54.7592 52.2599 53.4534C52.2599 52.7043 52.7356 51.8661 53.9522 51.4323ZM56.1958 44.4184C54.306 44.4184 52.8317 43.5838 52.8317 41.7632C52.8317 39.9424 54.3074 39.1078 56.1958 39.1078C58.0844 39.1078 59.5598 39.9402 59.5598 41.7632C59.5598 43.5862 58.0862 44.4184 56.1958 44.4184Z" fill="#404041"/>
</g>
</g>
</g>
</g>
</g>
</g>
</g>
</g>
</g>
</g>
</g>
<defs>
<clipPath id="clip0_0_1">
<rect width="104.705" height="40.1829" fill="white" transform="translate(22.8835 22.6205)"/>
</clipPath>
</defs>
</svg>
