<svg width="150" height="86" viewBox="0 0 150 86" fill="none" xmlns="http://www.w3.org/2000/svg">

<g id="about /1440">
<g id=" ">

<g id="Frame 2087329074">

<g id="Frame 2087329074_2">
<g id="Frame 2087328446" opacity="0.2">
<g id="Frame 1321317213">
<g id="card">
<g id="icon">
<g id="Frame 398">
<g id="Company logo" clip-path="url(#clip0_0_1)">
<g id="Vector">
<path fill-rule="evenodd" clip-rule="evenodd" d="M36.4021 26.8062C28.9331 26.8062 22.8835 33.3358 22.8835 41.3976C22.8835 47.8543 26.7532 53.3078 32.1268 55.2412C32.8028 55.3689 33.0562 54.9311 33.0562 54.5481C33.0562 54.2015 33.0393 53.0525 33.0393 51.8304C29.6428 52.5053 28.7641 50.9367 28.4937 50.1159C28.3417 49.6964 27.6826 48.4015 27.1081 48.0549C26.6349 47.7813 25.959 47.1065 27.0912 47.0882C28.1558 47.07 28.9162 48.1461 29.1697 48.5839C30.3863 50.7908 32.3296 50.1707 33.1069 49.7876C33.2252 48.8392 33.5801 48.2008 33.9687 47.836C30.9609 47.4713 27.8178 46.2127 27.8178 40.6315C27.8178 39.0447 28.3417 37.7315 29.2035 36.7101C29.0683 36.3453 28.5951 34.8497 29.3386 32.8434C29.3386 32.8434 30.4708 32.4603 33.0562 34.339C34.1377 34.0107 35.2868 33.8465 36.4359 33.8465C37.585 33.8465 38.734 34.0107 39.8155 34.339C42.4009 32.4421 43.5331 32.8434 43.5331 32.8434C44.2766 34.8497 43.8035 36.3453 43.6683 36.7101C44.5301 37.7315 45.0539 39.0265 45.0539 40.6315C45.0539 46.231 41.894 47.4713 38.8861 47.836C39.3762 48.292 39.7986 49.1675 39.7986 50.5355C39.7986 52.4871 39.7817 54.0556 39.7817 54.5481C39.7817 54.9311 40.0352 55.3871 40.7111 55.2412C43.3948 54.2633 45.7268 52.4017 47.3789 49.9183C49.0309 47.4349 49.9199 44.4549 49.9206 41.3976C49.9206 33.3358 43.8711 26.8062 36.4021 26.8062Z" fill="#24292E"/>
<path d="M85.9047 48.4405H85.8732C85.8874 48.4405 85.8968 48.4575 85.911 48.4592H85.9205L85.9047 48.4422V48.4405ZM85.911 48.4592C85.7643 48.4609 85.3953 48.5443 85.0057 48.5443C83.7755 48.5443 83.3497 47.9315 83.3497 47.1314V41.8014H85.8574C85.9993 41.8014 86.1097 41.6652 86.1097 41.478V38.584C86.1097 38.4308 85.9836 38.2946 85.8574 38.2946H83.3497V34.7027C83.3497 34.5665 83.2708 34.4814 83.1289 34.4814H79.7222C79.5803 34.4814 79.5014 34.5665 79.5014 34.7027V38.3967C79.5014 38.3967 77.7823 38.8564 77.6719 38.8734C77.5457 38.9074 77.4669 39.0266 77.4669 39.1628V41.478C77.4669 41.6652 77.5931 41.8014 77.735 41.8014H79.4856V47.385C79.4856 51.5387 82.1668 51.9643 83.9963 51.9643C84.8322 51.9643 85.8416 51.6749 85.9993 51.5898C86.094 51.5558 86.1413 51.4366 86.1413 51.3174V48.7639C86.1434 48.6915 86.1214 48.6207 86.0791 48.5644C86.0368 48.5081 85.9771 48.4702 85.911 48.4575V48.4592ZM123.283 44.7124C123.283 41.6312 122.132 41.2226 120.918 41.3588C119.971 41.4269 119.214 41.9376 119.214 41.9376V47.9298C119.214 47.9298 119.987 48.5086 121.139 48.5426C122.763 48.5937 123.283 47.9638 123.283 44.7124ZM127.116 44.44C127.116 50.279 125.365 51.9473 122.306 51.9473C119.719 51.9473 118.331 50.5344 118.331 50.5344C118.331 50.5344 118.268 51.3174 118.189 51.4196C118.142 51.5217 118.063 51.5558 117.968 51.5558H115.634C115.477 51.5558 115.335 51.4196 115.335 51.2664L115.366 32.3535C115.366 32.2002 115.492 32.0641 115.634 32.0641H118.994C119.136 32.0641 119.262 32.2002 119.262 32.3535V38.7712C119.262 38.7712 120.555 37.869 122.448 37.869L122.432 37.835C124.324 37.835 127.116 38.601 127.116 44.44ZM113.363 38.2946H110.051C109.878 38.2946 109.783 38.4308 109.783 38.618V47.8787C109.783 47.8787 108.916 48.5426 107.733 48.5426C106.55 48.5426 106.203 47.9638 106.203 46.6871V38.601C106.203 38.4478 106.077 38.3116 105.935 38.3116H102.56C102.418 38.3116 102.291 38.4478 102.291 38.601V47.2999C102.291 51.0451 104.231 51.9813 106.897 51.9813C109.089 51.9813 110.871 50.6705 110.871 50.6705C110.871 50.6705 110.95 51.3345 110.997 51.4366C111.029 51.5217 111.139 51.5898 111.25 51.5898H113.363C113.537 51.5898 113.631 51.4536 113.631 51.3004L113.663 38.584C113.663 38.4308 113.537 38.2946 113.363 38.2946ZM75.9844 38.2776H72.625C72.4831 38.2776 72.3569 38.4308 72.3569 38.618V51.1131C72.3569 51.4536 72.5619 51.5728 72.83 51.5728H75.8582C76.1736 51.5728 76.2525 51.4196 76.2525 51.1131V38.567C76.2525 38.4138 76.1263 38.2776 75.9844 38.2776ZM74.3283 32.5237C73.1139 32.5237 72.1518 33.5621 72.1518 34.8729C72.1518 36.1837 73.1139 37.2221 74.3283 37.2221C75.5112 37.2221 76.4733 36.1837 76.4733 34.8729C76.4733 33.5621 75.5112 32.5237 74.3283 32.5237ZM100.336 32.0981H97.0079C96.866 32.0981 96.7398 32.2343 96.7398 32.3875V39.35H91.5194V32.3875C91.5194 32.2343 91.3932 32.0981 91.2513 32.0981H87.8919C87.75 32.0981 87.6238 32.2343 87.6238 32.3875V51.3004C87.6238 51.4536 87.7658 51.5898 87.8919 51.5898H91.2513C91.3932 51.5898 91.5194 51.4536 91.5194 51.3004V43.2143H96.7398L96.7083 51.3004C96.7083 51.4536 96.8344 51.5898 96.9764 51.5898H100.336C100.478 51.5898 100.604 51.4536 100.604 51.3004V32.3875C100.604 32.2343 100.478 32.0981 100.336 32.0981ZM70.5747 40.4736V50.245C70.5747 50.3131 70.5589 50.4322 70.4801 50.4663C70.4801 50.4663 68.5086 51.9813 65.2596 51.9813C61.3325 51.9813 56.6799 50.6535 56.6799 41.9035C56.6799 33.1536 60.749 31.3491 64.7234 31.3661C68.1616 31.3661 69.5495 32.2002 69.7703 32.3535C69.8334 32.4386 69.865 32.5067 69.865 32.5918L69.2026 35.6219C69.2026 35.7751 69.0606 35.9624 68.8871 35.9113C68.3193 35.7241 67.4677 35.3496 65.4647 35.3496C63.1463 35.3496 60.6543 36.0645 60.6543 41.6993C60.6543 47.334 63.0201 47.9979 64.7234 47.9979C66.1744 47.9979 66.6949 47.8106 66.6949 47.8106V43.8953H64.3764C64.2029 43.8953 64.0768 43.7591 64.0768 43.6059V40.4736C64.0768 40.3204 64.2029 40.1842 64.3764 40.1842H70.275C70.4485 40.1842 70.5747 40.3204 70.5747 40.4736Z" fill="#24292E"/>
</g>
</g>
</g>
</g>
</g>
</g>
</g>
</g>
</g>
</g>
</g>
<defs>
<clipPath id="clip0_0_1">
<rect width="104.705" height="40.1829" fill="white" transform="translate(22.8835 22.6205)"/>
</clipPath>
</defs>
</svg>
