<svg width="150" height="86" viewBox="0 0 150 86" fill="none" xmlns="http://www.w3.org/2000/svg">

<g id="about /1440">
<g id=" ">

<g id="Frame 2087329074">

<g id="Frame 2087329074_2">
<g id="Frame 2087328446" opacity="0.2">
<g id="Frame 1321317212">
<g id="card">
<g id="icon">
<g id="Frame 398">
<g id="Company logo" clip-path="url(#clip0_0_1)">
<path id="Vector" d="M55.8857 40.4001H45.9577C45.3888 40.4001 44.9621 40.9736 45.1612 41.5051L47.5508 47.5897C47.6646 47.8555 47.437 48.1492 47.1525 48.1352L44.0803 47.9394C43.9523 47.9254 43.81 47.9954 43.7247 48.1073L41.3494 51.4223C41.2214 51.6042 40.9653 51.6741 40.7662 51.5482L37.2673 49.1983C37.1393 49.1004 36.9401 49.1004 36.8121 49.1983L31.9477 52.4434C31.6348 52.6532 31.2223 52.3595 31.3219 52.0098L32.6731 47.24C32.73 47.0442 32.6304 46.8344 32.4313 46.7645L29.8569 45.7294C29.6009 45.6175 29.5155 45.3237 29.7004 45.0999L31.9904 42.3304C32.1042 42.1905 32.1184 41.9947 32.0046 41.8548L30.056 39.1273C29.8853 38.8755 30.0418 38.5258 30.3689 38.4978L33.3416 38.274C33.555 38.26 33.7399 38.0782 33.7256 37.8544L33.4981 33.756C33.4838 33.4623 33.7825 33.2525 34.067 33.3644L37.7509 34.8611C37.9073 34.931 38.1064 34.889 38.206 34.7492L40.752 31.9656C40.9511 31.7418 41.3209 31.8118 41.4347 32.0775L42.9566 35.9381C43.1557 36.4137 43.7674 36.5955 44.1941 36.2738L50.1679 31.8957C50.8506 31.4061 50.4097 30.3431 49.5705 30.455L45.6448 30.9725C45.4599 31.0005 45.275 30.8886 45.2181 30.7207L43.1557 25.5034C42.9282 24.9579 42.2028 24.832 41.8045 25.2656L37.3099 30.0633C37.1819 30.1892 37.0112 30.2172 36.8548 30.1612L30.9236 27.6994C30.3974 27.4896 29.8142 27.8393 29.7858 28.4128L29.5724 34.4135C29.5582 34.6233 29.4017 34.7911 29.1884 34.8051L23.7835 35.1548C23.1435 35.1968 22.8163 35.8961 23.1577 36.3997L26.7562 41.6031C26.87 41.7429 26.8558 41.9527 26.7277 42.0926L23.0866 46.2189C22.7168 46.6246 22.8732 47.268 23.3853 47.4778L27.5811 49.2542C27.7661 49.3382 27.8656 49.534 27.8087 49.7158L25.1347 59.9967C24.9498 60.724 25.789 61.2835 26.4006 60.8499L36.4565 53.7582C36.5845 53.6603 36.7837 53.6463 36.9259 53.7582L41.5058 56.9194C41.8899 57.1852 42.4019 57.0733 42.6579 56.7096L45.5168 52.3875C45.6022 52.2616 45.7586 52.1916 45.9151 52.2196L52.7707 53.0309C53.3255 53.1148 53.8802 52.6532 53.681 52.1497L50.8364 44.8901C50.751 44.6943 50.8364 44.4845 51.0782 44.3586L56.2839 41.9388C57.0378 41.5611 56.7675 40.4001 55.8857 40.4001Z" fill="#181818"/>
<path id="Vector_2" d="M127.131 40.4141H119.422C119.28 40.4141 119.137 40.54 119.137 40.6939V44.0509C119.137 44.1908 119.265 44.3307 119.422 44.3307H122.722C122.878 44.3307 123.006 44.4565 123.006 44.6104C122.978 46.3309 122.608 49.4501 119.422 49.4501C116.819 49.4501 115.766 46.3589 115.766 42.7221C115.766 38.4139 116.847 35.7563 119.265 35.7563C121.029 35.7563 121.598 37.225 121.769 37.7565C121.811 37.8824 121.911 37.9523 122.039 37.9523H126.05C126.206 37.9523 126.349 37.8125 126.334 37.6586C126.178 35.5045 124.3 31.7279 119.351 31.7279C115.894 31.7279 112.652 33.798 111.613 38.9175V32.3293C111.613 32.2454 111.542 32.1895 111.471 32.1895H107.232C107.147 32.1895 107.09 32.2594 107.09 32.3293V44.1069C107.09 44.2467 106.891 44.2887 106.82 44.1628L101.259 32.2734C101.23 32.2174 101.188 32.1895 101.131 32.1895H97.3756C97.2903 32.1895 97.2334 32.2594 97.2334 32.3293V38.9315C95.8395 34.7492 92.0561 31.7419 87.1348 31.7419C81.6446 31.7419 77.5767 35.4765 76.6522 40.4281H68.9716C68.8862 40.4281 68.8436 40.4981 68.8436 40.568V44.2048C68.8436 44.2887 68.9147 44.3446 68.9716 44.3446H72.5559C72.6412 44.3446 72.6839 44.4146 72.6839 44.4705C72.6697 46.163 72.371 49.4361 69.0854 49.4361C66.4825 49.4361 65.4442 46.3449 65.4442 42.7081C65.4442 38.3999 66.5252 35.7423 68.9431 35.7423C70.8064 35.7423 71.3469 37.4068 71.4749 37.8404C71.4891 37.9104 71.546 37.9523 71.6029 37.9523H75.8699C75.9552 37.9523 76.0121 37.8824 75.9979 37.8125C75.9126 35.6864 74.0635 31.7419 69 31.7419C64.8041 31.7419 60.9211 34.8051 60.9211 42.6801C60.9211 48.1073 63.0831 53.4505 69.0711 53.4505C73.5088 53.4505 76.3393 50.0795 76.9651 46.0232C78.3021 50.3453 82.1282 53.4505 87.1348 53.4505C91.9708 53.4505 95.8253 50.4292 97.2334 46.219V52.891C97.2334 52.975 97.3045 53.0309 97.3756 53.0309H101.614C101.7 53.0309 101.756 52.961 101.756 52.891V41.3093C101.756 41.1695 101.956 41.1275 102.027 41.2534L107.588 52.961C107.616 53.0169 107.659 53.0449 107.716 53.0449H111.471C111.556 53.0449 111.613 52.975 111.613 52.919V46.3029C112.438 50.2754 114.771 53.4925 119.408 53.4925C124.457 53.4925 127.43 49.1144 127.43 44.3307V40.7498C127.415 40.526 127.287 40.4141 127.131 40.4141ZM87.1206 49.1004C83.5505 49.1004 81.0757 46.4008 81.0757 42.5962C81.0757 38.7776 83.5505 36.092 87.1206 36.092C90.6764 36.092 93.1655 38.7916 93.1655 42.5962C93.1655 46.4008 90.6764 49.1004 87.1206 49.1004Z" fill="#181818"/>
</g>
</g>
</g>
</g>
</g>
</g>
</g>
</g>
</g>
</g>
<defs>
<clipPath id="clip0_0_1">
<rect width="104.705" height="40.1829" fill="white" transform="translate(22.8835 22.6205)"/>
</clipPath>
</defs>
</svg>
