<svg width="150" height="86" viewBox="0 0 150 86" fill="none" xmlns="http://www.w3.org/2000/svg">

<g id="about /1440">
<g id=" ">

<g id="Frame 2087329074">

<g id="Frame 2087329074_2">
<g id="Frame 2087328446" opacity="0.2">
<g id="Frame 1321317215">
<g id="card">
<g id="icon">
<g id="Frame 398">
<g id="Company logo" clip-path="url(#clip0_0_1)">
<path id="Vector" d="M67.3375 37.9705H71.3122L65.6639 51.9599H62.1076L56.3547 37.9705H60.434L63.8857 47.331L67.3375 37.9705ZM72.5673 51.857H76.4374V37.9705H72.5673V51.857ZM78.2156 47.331H82.0857C82.1903 48.2568 82.8179 49.1826 84.4914 49.1826C85.9558 49.1826 86.688 48.6683 86.688 47.9482C86.688 45.5824 78.8432 47.8454 78.8432 42.2908C78.8432 39.7192 81.0397 37.6619 84.4914 37.6619C88.7799 37.6619 90.2443 40.3364 90.3489 42.3936H86.688C86.5834 41.4679 85.9558 40.7478 84.596 40.7478C83.3409 40.7478 82.6087 41.365 82.6087 42.085C82.6087 44.4509 90.4535 42.085 90.4535 47.8454C90.4535 50.3141 88.2569 52.2685 84.4914 52.2685C79.9937 52.1656 78.4248 50.0055 78.2156 47.331ZM92.3362 51.857H96.2063V37.9705H92.3362V51.857ZM105.306 48.874C107.294 48.874 108.863 47.4339 108.863 44.8623C108.863 42.3936 107.294 40.8507 105.306 40.8507C103.319 40.8507 101.75 42.2908 101.75 44.8623C101.75 47.4339 103.319 48.874 105.306 48.874ZM97.8799 44.8623C97.8799 40.8507 100.809 37.5591 105.306 37.5591C109.804 37.5591 112.733 40.8507 112.733 44.8623C112.733 48.874 109.804 52.1656 105.306 52.1656C100.809 52.1656 97.8799 48.874 97.8799 44.8623ZM118.067 39.6163C118.695 38.382 120.159 37.5591 122.251 37.5591C125.703 37.5591 127.481 39.822 127.481 43.1137V51.857H123.611V43.5251C123.611 41.8793 122.879 40.7478 121.205 40.7478C119.322 40.7478 118.276 41.8793 118.276 43.8337V51.857H114.406V37.9705H118.067V39.6163Z" fill="#181818"/>
<path id="Vector_2" d="M22.8835 60.292H58.5512V25.2157H22.8835V60.292Z" fill="#181818"/>
<path id="Vector_3" d="M35.4352 36.2221C36.5858 36.2221 37.5271 35.3992 37.5271 34.1649C37.5271 33.0334 36.5858 32.1076 35.4352 32.1076C34.2846 32.1076 33.3432 32.9305 33.3432 34.1649C33.3432 35.3992 34.2846 36.2221 35.4352 36.2221ZM31.0421 47.1256C30.9375 47.6399 30.8329 48.1543 30.8329 48.6686C30.8329 50.4172 31.7743 51.6516 33.8662 51.6516C35.6444 51.6516 37.0041 50.623 38.0501 48.9772L37.4225 51.4459H40.8743L42.8616 43.7311C43.3846 41.7767 44.326 40.7481 45.7903 40.7481C46.9409 40.7481 47.6731 41.4682 47.6731 42.5996C47.6731 42.9082 47.6731 43.3197 47.5685 43.7311L46.5225 47.3314C46.4179 47.8457 46.3133 48.36 46.3133 48.8743C46.3133 50.5201 47.3593 51.7545 49.4512 51.7545C51.2294 51.7545 52.6938 50.623 53.5305 47.8457L52.1708 47.3314C51.5432 49.1829 50.9156 49.4915 50.4972 49.4915C50.0788 49.4915 49.765 49.1829 49.765 48.5657C49.765 48.2571 49.8696 47.9485 49.8696 47.6399L50.811 44.1426C51.0202 43.3197 51.1248 42.5996 51.1248 41.9825C51.1248 39.4109 49.5558 38.0737 47.5685 38.0737C45.7903 38.0737 43.9076 39.7195 42.9662 41.3653L43.5938 38.3823H38.3639L37.6317 41.0567H40.0375L38.5731 46.7142C37.4225 49.2857 35.226 49.3886 34.9122 49.2858C34.4938 49.1829 34.18 48.9772 34.18 48.4628C34.18 48.1543 34.2846 47.6399 34.3892 47.1256L36.6904 38.1765H30.9375L30.2053 40.851H32.6111L31.0421 47.1256Z" fill="white"/>
</g>
</g>
</g>
</g>
</g>
</g>
</g>
</g>
</g>
</g>
<defs>
<clipPath id="clip0_0_1">
<rect width="104.705" height="40.1829" fill="white" transform="translate(22.8835 22.6205)"/>
</clipPath>
</defs>
</svg>
