<svg width="150" height="86" viewBox="0 0 150 86" fill="none" xmlns="http://www.w3.org/2000/svg">

<g id="about /1440">
<g id=" ">

<g id="Frame 2087329074">

<g id="Frame 2087329074_2">
<g id="Frame 2087328446" opacity="0.2">
<g id="Frame 1321317217">
<g id="card">
<g id="icon">
<g id="Frame 398">
<g id="Company logo">
<path id="Vector" fill-rule="evenodd" clip-rule="evenodd" d="M67.558 35.3701C69.471 35.0911 71.3841 34.7974 73.278 34.5184C73.2589 41.0233 73.2589 47.5135 73.278 54.0037C71.3841 53.71 69.471 53.4017 67.5771 53.1227C67.5197 52.55 67.558 51.9773 67.558 51.4047C67.5388 46.0745 67.5388 40.7296 67.558 35.3701ZM113.835 38.2481C112.228 38.2775 110.583 38.6592 109.339 39.4522C108.306 40.0982 107.56 40.9793 107.139 41.9484C106.68 42.9909 106.584 44.1216 106.757 45.2228C106.948 46.4856 107.598 47.7338 108.746 48.6588C109.645 49.393 110.87 49.9069 112.151 50.1272C113.758 50.4062 115.499 50.3621 117.011 49.8188C118.12 49.4371 119.039 48.7616 119.689 47.9687C120.416 47.073 120.779 46.0304 120.894 44.9732C121.028 43.7838 120.856 42.5651 120.282 41.4491C119.785 40.4506 118.885 39.5549 117.68 38.9823C116.532 38.439 115.174 38.204 113.835 38.2481ZM112.993 34.1514C115.767 34.0045 118.675 34.401 121.066 35.5316C122.406 36.163 123.553 37 124.452 37.9838C125.237 38.8648 125.811 39.8486 126.213 40.8765C126.633 41.9778 126.786 43.1378 126.806 44.2831C126.806 46.3829 126.174 48.5267 124.663 50.3034C123.343 51.8892 121.334 53.1227 119.039 53.7687C117.546 54.1946 115.978 54.4001 114.39 54.4295C111.405 54.4736 108.325 53.9156 105.896 52.5647C103.83 51.434 102.318 49.7748 101.553 47.9246C101.017 46.6912 100.807 45.3697 100.826 44.0628C100.845 41.7869 101.706 39.4668 103.562 37.6754C105.073 36.1924 107.235 35.1352 109.588 34.6065C110.678 34.3422 111.826 34.1954 112.993 34.1514ZM30.9802 35.0177C32.3576 34.401 33.9454 34.1073 35.5333 34.122C38.0585 34.1954 40.4881 35.1939 41.9612 36.7797C42.7072 36.0015 43.7403 35.3995 44.8499 34.9736C47.356 34.0486 50.3978 33.9017 52.9804 34.7093C54.1856 35.0911 55.2761 35.6785 56.1178 36.442C56.9787 37.2202 57.5526 38.16 57.897 39.1291C58.2605 40.1423 58.3561 41.1995 58.3179 42.2421C58.3179 46.1626 58.3179 50.0978 58.3179 54.0184C56.4239 53.7247 54.5109 53.4163 52.5978 53.1373C52.5787 49.3783 52.5978 45.6193 52.5787 41.8603C52.5978 40.9939 52.196 40.1129 51.3926 39.5109C50.5317 38.8354 49.2691 38.5124 48.0447 38.5271C46.9542 38.5124 45.8447 38.762 44.9838 39.2906C44.0081 39.878 43.4916 40.8471 43.4916 41.8015C43.4916 45.8689 43.4916 49.951 43.4916 54.0184C41.5785 53.7247 39.6655 53.4163 37.7524 53.1373C37.7333 51.9333 37.7524 50.7145 37.7333 49.4958C37.7333 46.9702 37.7333 44.4446 37.7333 41.9043C37.7715 41.038 37.3889 40.1423 36.5854 39.5256C35.8776 38.9676 34.9019 38.6446 33.9263 38.5565C32.9889 38.483 32.0323 38.5418 31.1523 38.8208C30.2341 39.1144 29.4497 39.6724 29.0288 40.3625C28.7419 40.8324 28.608 41.3464 28.608 41.8603C28.608 45.032 28.608 48.2036 28.608 51.3753C28.6271 52.2563 28.5888 53.1373 28.6271 54.0184C26.714 53.7394 24.8201 53.4163 22.9262 53.152C22.8879 52.6381 22.9453 52.1095 22.8879 51.6102C22.907 51.0229 22.907 50.4355 22.8879 49.8482C22.9453 49.3049 22.8879 48.7469 22.907 48.2036C22.907 46.6472 22.907 45.0907 22.907 43.5342C22.8879 42.5651 22.9262 41.5813 22.8879 40.6122C22.907 40.0689 22.907 39.5109 22.8879 38.9676C22.9262 37.881 22.907 36.8091 22.907 35.7225C22.9262 35.6197 22.8114 35.4582 22.9644 35.3995C24.8584 35.1205 26.7332 34.8415 28.6271 34.5625C28.608 35.2233 28.6271 35.884 28.6271 36.5448C29.2967 35.9281 30.081 35.3995 30.9802 35.0177ZM93.3843 34.4157C94.3026 34.2982 95.24 34.1807 96.1583 34.0632C96.1583 35.5904 96.1583 37.1175 96.1583 38.6446C95.24 38.7767 94.3217 38.9089 93.4035 39.0263C92.026 39.2025 90.5912 39.5109 89.5582 40.2744C88.7164 40.8765 88.3147 41.7575 88.2382 42.6238C88.1808 43.2405 88.219 43.8573 88.219 44.4887C88.219 47.6603 88.219 50.832 88.219 54.0037C86.6312 53.7541 85.0434 53.5044 83.4364 53.2695C83.1303 53.2254 82.8433 53.1667 82.5181 53.1373C82.4416 52.7996 82.499 52.4619 82.4799 52.1242C82.4799 48.7469 82.4799 45.3844 82.4799 42.0071C82.5181 40.9499 82.7477 39.878 83.3216 38.8942C83.8764 37.9104 84.8521 37.0734 85.9999 36.4567C87.5303 35.6491 89.3095 35.1645 91.1078 34.7974C91.873 34.6653 92.6 34.5038 93.3843 34.4157ZM69.8536 26.0019C70.7719 25.9138 71.7667 25.9872 72.5511 26.4131C73.4502 26.8682 73.9476 27.6905 73.9667 28.4981C74.0241 28.7331 73.9476 28.9827 73.9476 29.2176C73.8519 29.9518 73.3545 30.6566 72.5319 31.0678C71.671 31.5083 70.5615 31.5817 69.5475 31.4202C68.7058 31.288 67.9214 30.8769 67.4432 30.3042C66.8884 29.6288 66.7927 28.7771 67.0032 27.9989C67.1945 27.2647 67.8449 26.5893 68.7249 26.2662C69.0884 26.1341 69.471 26.046 69.8536 26.0019Z" fill="#181818"/>
</g>
</g>
</g>
</g>
</g>
</g>
</g>
</g>
</g>
</g>
</svg>
